  0
SECTION
  2
HEADER
  9
$ACADVER
  1
AC1009
  9
$EXTMIN
 10
0.0
 20
0.0
 30
0.0
  9
$EXTMAX
 10
1000.0
 20
1000.0
 30
0.0
  9
$FILLMODE
 70
 0
  9
$SPLFRAME
 70
 1
  0
ENDSEC
  0
SECTION
  2
TABLES
  0
TABLE
  2
LAYER
 70
1
  0
LAYER
  2
0
 70
     0
 62
     7
  6
CONTINUOUS
  0
ENDTAB
  0
ENDSEC
  0
SECTION
  2
ENTITIES
  0
LINE
  8
0
 62
     1
 10
100.003
 20
0.00275608
 30
0.0
 11
66.8556
 21
0.00275608
 31
0.0
  0
LINE
  8
0
 62
     1
 10
66.8556
 20
0.00275608
 30
0.0
 11
55.9703
 21
18.8557
 31
0.0
  0
LINE
  8
0
 62
     1
 10
55.9703
 20
18.8557
 30
0.0
 11
42.8985
 21
41.4969
 31
0.0
  0
LINE
  8
0
 62
     1
 10
42.8985
 20
41.4969
 30
0.0
 11
20.3908
 21
80.4788
 31
0.0
  0
LINE
  8
0
 62
     1
 10
20.3908
 20
80.4788
 30
0.0
 11
19.2967
 21
82.375
 31
0.0
  0
LINE
  8
0
 62
     1
 10
19.2967
 20
82.375
 30
0.0
 11
6.79235
 21
104.032
 31
0.0
  0
LINE
  8
0
 62
     1
 10
6.79235
 20
104.032
 30
0.0
 11
0.00275608
 21
115.792
 31
0.0
  0
LINE
  8
0
 62
     1
 10
0.00275608
 20
115.792
 30
0.0
 11
6.79235
 21
127.552
 31
0.0
  0
LINE
  8
0
 62
     1
 10
6.79235
 20
127.552
 30
0.0
 11
9.64628
 21
132.496
 31
0.0
  0
LINE
  8
0
 62
     1
 10
9.64628
 20
132.496
 30
0.0
 11
16.5751
 21
144.497
 31
0.0
  0
LINE
  8
0
 62
     1
 10
16.5751
 20
144.497
 30
0.0
 11
150.283
 21
144.497
 31
0.0
  0
LINE
  8
0
 62
     1
 10
150.283
 20
144.497
 30
0.0
 11
155.451
 21
135.544
 31
0.0
  0
LINE
  8
0
 62
     1
 10
155.451
 20
135.544
 30
0.0
 11
156.544
 21
133.652
 31
0.0
  0
LINE
  8
0
 62
     1
 10
156.544
 20
133.652
 30
0.0
 11
157.211
 21
132.496
 31
0.0
  0
LINE
  8
0
 62
     1
 10
157.211
 20
132.496
 30
0.0
 11
160.027
 21
127.616
 31
0.0
  0
LINE
  8
0
 62
     1
 10
160.027
 20
127.616
 30
0.0
 11
166.856
 21
115.791
 31
0.0
  0
LINE
  8
0
 62
     1
 10
166.856
 20
115.791
 30
0.0
 11
165.76
 21
113.894
 31
0.0
  0
LINE
  8
0
 62
     1
 10
165.76
 20
113.894
 30
0.0
 11
156.544
 21
97.9318
 31
0.0
  0
LINE
  8
0
 62
     1
 10
156.544
 20
97.9318
 30
0.0
 11
155.97
 21
96.9395
 31
0.0
  0
LINE
  8
0
 62
     1
 10
155.97
 20
96.9395
 30
0.0
 11
123.96
 21
41.4969
 31
0.0
  0
LINE
  8
0
 62
     1
 10
123.96
 20
41.4969
 30
0.0
 11
120.392
 21
35.3162
 31
0.0
  0
LINE
  8
0
 62
     1
 10
120.392
 20
35.3162
 30
0.0
 11
103.321
 21
5.74918
 31
0.0
  0
LINE
  8
0
 62
     1
 10
103.321
 20
5.74918
 30
0.0
 11
100.003
 21
0.00275608
 31
0.0
  0
LINE
  8
0
 62
     1
 10
70.3862
 20
5.83463
 30
0.0
 11
70.9277
 21
5.74918
 31
0.0
  0
LINE
  8
0
 62
     1
 10
70.9277
 20
5.74918
 30
0.0
 11
71.4678
 21
5.83463
 31
0.0
  0
LINE
  8
0
 62
     1
 10
71.4678
 20
5.83463
 30
0.0
 11
71.9557
 21
6.08404
 31
0.0
  0
LINE
  8
0
 62
     1
 10
71.9557
 20
6.08404
 30
0.0
 11
72.3427
 21
6.47128
 31
0.0
  0
LINE
  8
0
 62
     1
 10
72.3427
 20
6.47128
 30
0.0
 11
72.5921
 21
6.96048
 31
0.0
  0
LINE
  8
0
 62
     1
 10
72.5921
 20
6.96048
 30
0.0
 11
72.6779
 21
7.50203
 31
0.0
  0
LINE
  8
0
 62
     1
 10
72.6779
 20
7.50203
 30
0.0
 11
72.6376
 21
7.75423
 31
0.0
  0
LINE
  8
0
 62
     1
 10
72.6376
 20
7.75423
 30
0.0
 11
72.5921
 21
8.04362
 31
0.0
  0
LINE
  8
0
 62
     1
 10
72.5921
 20
8.04362
 30
0.0
 11
72.3427
 21
8.53144
 31
0.0
  0
LINE
  8
0
 62
     1
 10
72.3427
 20
8.53144
 30
0.0
 11
71.9557
 21
8.92006
 31
0.0
  0
LINE
  8
0
 62
     1
 10
71.9557
 20
8.92006
 30
0.0
 11
71.4678
 21
9.16809
 31
0.0
  0
LINE
  8
0
 62
     1
 10
71.4678
 20
9.16809
 30
0.0
 11
70.9277
 21
9.25491
 31
0.0
  0
LINE
  8
0
 62
     1
 10
70.9277
 20
9.25491
 30
0.0
 11
70.3862
 21
9.16809
 31
0.0
  0
LINE
  8
0
 62
     1
 10
70.3862
 20
9.16809
 30
0.0
 11
69.8997
 21
8.92006
 31
0.0
  0
LINE
  8
0
 62
     1
 10
69.8997
 20
8.92006
 30
0.0
 11
69.511
 21
8.53144
 31
0.0
  0
LINE
  8
0
 62
     1
 10
69.511
 20
8.53144
 30
0.0
 11
69.263
 21
8.04362
 31
0.0
  0
LINE
  8
0
 62
     1
 10
69.263
 20
8.04362
 30
0.0
 11
69.2175
 21
7.75423
 31
0.0
  0
LINE
  8
0
 62
     1
 10
69.2175
 20
7.75423
 30
0.0
 11
69.1776
 21
7.50203
 31
0.0
  0
LINE
  8
0
 62
     1
 10
69.1776
 20
7.50203
 30
0.0
 11
69.263
 21
6.96048
 31
0.0
  0
LINE
  8
0
 62
     1
 10
69.263
 20
6.96048
 30
0.0
 11
69.511
 21
6.47128
 31
0.0
  0
LINE
  8
0
 62
     1
 10
69.511
 20
6.47128
 30
0.0
 11
69.8997
 21
6.08404
 31
0.0
  0
LINE
  8
0
 62
     1
 10
69.8997
 20
6.08404
 30
0.0
 11
70.3862
 21
5.83463
 31
0.0
  0
LINE
  8
0
 62
     1
 10
95.3904
 20
5.83463
 30
0.0
 11
95.9323
 21
5.74918
 31
0.0
  0
LINE
  8
0
 62
     1
 10
95.9323
 20
5.74918
 30
0.0
 11
96.4738
 21
5.83463
 31
0.0
  0
LINE
  8
0
 62
     1
 10
96.4738
 20
5.83463
 30
0.0
 11
96.9617
 21
6.08404
 31
0.0
  0
LINE
  8
0
 62
     1
 10
96.9617
 20
6.08404
 30
0.0
 11
97.3487
 21
6.47128
 31
0.0
  0
LINE
  8
0
 62
     1
 10
97.3487
 20
6.47128
 30
0.0
 11
97.5953
 21
6.96048
 31
0.0
  0
LINE
  8
0
 62
     1
 10
97.5953
 20
6.96048
 30
0.0
 11
97.6824
 21
7.50203
 31
0.0
  0
LINE
  8
0
 62
     1
 10
97.6824
 20
7.50203
 30
0.0
 11
97.6422
 21
7.75423
 31
0.0
  0
LINE
  8
0
 62
     1
 10
97.6422
 20
7.75423
 30
0.0
 11
97.5953
 21
8.04362
 31
0.0
  0
LINE
  8
0
 62
     1
 10
97.5953
 20
8.04362
 30
0.0
 11
97.3487
 21
8.53144
 31
0.0
  0
LINE
  8
0
 62
     1
 10
97.3487
 20
8.53144
 30
0.0
 11
96.9617
 21
8.92006
 31
0.0
  0
LINE
  8
0
 62
     1
 10
96.9617
 20
8.92006
 30
0.0
 11
96.4738
 21
9.16809
 31
0.0
  0
LINE
  8
0
 62
     1
 10
96.4738
 20
9.16809
 30
0.0
 11
95.9323
 21
9.25491
 31
0.0
  0
LINE
  8
0
 62
     1
 10
95.9323
 20
9.25491
 30
0.0
 11
95.3904
 21
9.16809
 31
0.0
  0
LINE
  8
0
 62
     1
 10
95.3904
 20
9.16809
 30
0.0
 11
94.9029
 21
8.92006
 31
0.0
  0
LINE
  8
0
 62
     1
 10
94.9029
 20
8.92006
 30
0.0
 11
94.5155
 21
8.53144
 31
0.0
  0
LINE
  8
0
 62
     1
 10
94.5155
 20
8.53144
 30
0.0
 11
94.2675
 21
8.04362
 31
0.0
  0
LINE
  8
0
 62
     1
 10
94.2675
 20
8.04362
 30
0.0
 11
94.2206
 21
7.75423
 31
0.0
  0
LINE
  8
0
 62
     1
 10
94.2206
 20
7.75423
 30
0.0
 11
94.1807
 21
7.50203
 31
0.0
  0
LINE
  8
0
 62
     1
 10
94.1807
 20
7.50203
 30
0.0
 11
94.2675
 21
6.96048
 31
0.0
  0
LINE
  8
0
 62
     1
 10
94.2675
 20
6.96048
 30
0.0
 11
94.5155
 21
6.47128
 31
0.0
  0
LINE
  8
0
 62
     1
 10
94.5155
 20
6.47128
 30
0.0
 11
94.9029
 21
6.08404
 31
0.0
  0
LINE
  8
0
 62
     1
 10
94.9029
 20
6.08404
 30
0.0
 11
95.3904
 21
5.83463
 31
0.0
  0
LINE
  8
0
 62
     1
 10
82.6562
 20
30.1239
 30
0.0
 11
83.4291
 21
29.9999
 31
0.0
  0
LINE
  8
0
 62
     1
 10
83.4291
 20
29.9999
 30
0.0
 11
84.2024
 21
30.1239
 31
0.0
  0
LINE
  8
0
 62
     1
 10
84.2024
 20
30.1239
 30
0.0
 11
84.8995
 21
30.4781
 31
0.0
  0
LINE
  8
0
 62
     1
 10
84.8995
 20
30.4781
 30
0.0
 11
85.4534
 21
31.032
 31
0.0
  0
LINE
  8
0
 62
     1
 10
85.4534
 20
31.032
 30
0.0
 11
85.809
 21
31.7307
 31
0.0
  0
LINE
  8
0
 62
     1
 10
85.809
 20
31.7307
 30
0.0
 11
85.9042
 21
32.3301
 31
0.0
  0
LINE
  8
0
 62
     1
 10
85.9042
 20
32.3301
 30
0.0
 11
85.9317
 21
32.5038
 31
0.0
  0
LINE
  8
0
 62
     1
 10
85.9317
 20
32.5038
 30
0.0
 11
85.809
 21
33.2769
 31
0.0
  0
LINE
  8
0
 62
     1
 10
85.809
 20
33.2769
 30
0.0
 11
85.4534
 21
33.9742
 31
0.0
  0
LINE
  8
0
 62
     1
 10
85.4534
 20
33.9742
 30
0.0
 11
84.8995
 21
34.5267
 31
0.0
  0
LINE
  8
0
 62
     1
 10
84.8995
 20
34.5267
 30
0.0
 11
84.2024
 21
34.8837
 31
0.0
  0
LINE
  8
0
 62
     1
 10
84.2024
 20
34.8837
 30
0.0
 11
83.4291
 21
35.0049
 31
0.0
  0
LINE
  8
0
 62
     1
 10
83.4291
 20
35.0049
 30
0.0
 11
82.6562
 21
34.8837
 31
0.0
  0
LINE
  8
0
 62
     1
 10
82.6562
 20
34.8837
 30
0.0
 11
81.9573
 21
34.5267
 31
0.0
  0
LINE
  8
0
 62
     1
 10
81.9573
 20
34.5267
 30
0.0
 11
81.4035
 21
33.9742
 31
0.0
  0
LINE
  8
0
 62
     1
 10
81.4035
 20
33.9742
 30
0.0
 11
81.0493
 21
33.2769
 31
0.0
  0
LINE
  8
0
 62
     1
 10
81.0493
 20
33.2769
 30
0.0
 11
80.9265
 21
32.5038
 31
0.0
  0
LINE
  8
0
 62
     1
 10
80.9265
 20
32.5038
 30
0.0
 11
80.9544
 21
32.3301
 31
0.0
  0
LINE
  8
0
 62
     1
 10
80.9544
 20
32.3301
 30
0.0
 11
81.0493
 21
31.7307
 31
0.0
  0
LINE
  8
0
 62
     1
 10
81.0493
 20
31.7307
 30
0.0
 11
81.4035
 21
31.032
 31
0.0
  0
LINE
  8
0
 62
     1
 10
81.4035
 20
31.032
 30
0.0
 11
81.9573
 21
30.4781
 31
0.0
  0
LINE
  8
0
 62
     1
 10
81.9573
 20
30.4781
 30
0.0
 11
82.6562
 21
30.1239
 31
0.0
  0
LINE
  8
0
 62
     1
 10
20.3247
 20
138.821
 30
0.0
 11
19.8658
 21
138.522
 31
0.0
  0
LINE
  8
0
 62
     1
 10
19.8658
 20
138.522
 30
0.0
 11
19.5213
 21
138.096
 31
0.0
  0
LINE
  8
0
 62
     1
 10
19.5213
 20
138.096
 30
0.0
 11
19.3256
 21
137.586
 31
0.0
  0
LINE
  8
0
 62
     1
 10
19.3256
 20
137.586
 30
0.0
 11
19.3201
 21
137.492
 31
0.0
  0
LINE
  8
0
 62
     1
 10
19.3201
 20
137.492
 30
0.0
 11
19.2967
 21
137.038
 31
0.0
  0
LINE
  8
0
 62
     1
 10
19.2967
 20
137.038
 30
0.0
 11
19.3201
 21
136.949
 31
0.0
  0
LINE
  8
0
 62
     1
 10
19.3201
 20
136.949
 30
0.0
 11
19.4386
 21
136.508
 31
0.0
  0
LINE
  8
0
 62
     1
 10
19.4386
 20
136.508
 30
0.0
 11
19.7363
 21
136.051
 31
0.0
  0
LINE
  8
0
 62
     1
 10
19.7363
 20
136.051
 30
0.0
 11
20.1621
 21
135.707
 31
0.0
  0
LINE
  8
0
 62
     1
 10
20.1621
 20
135.707
 30
0.0
 11
20.6733
 21
135.509
 31
0.0
  0
LINE
  8
0
 62
     1
 10
20.6733
 20
135.509
 30
0.0
 11
21.2204
 21
135.48
 31
0.0
  0
LINE
  8
0
 62
     1
 10
21.2204
 20
135.48
 30
0.0
 11
21.3679
 21
135.522
 31
0.0
  0
LINE
  8
0
 62
     1
 10
21.3679
 20
135.522
 30
0.0
 11
21.7496
 21
135.624
 31
0.0
  0
LINE
  8
0
 62
     1
 10
21.7496
 20
135.624
 30
0.0
 11
22.2085
 21
135.921
 31
0.0
  0
LINE
  8
0
 62
     1
 10
22.2085
 20
135.921
 30
0.0
 11
22.553
 21
136.347
 31
0.0
  0
LINE
  8
0
 62
     1
 10
22.553
 20
136.347
 30
0.0
 11
22.7487
 21
136.858
 31
0.0
  0
LINE
  8
0
 62
     1
 10
22.7487
 20
136.858
 30
0.0
 11
22.7776
 21
137.406
 31
0.0
  0
LINE
  8
0
 62
     1
 10
22.7776
 20
137.406
 30
0.0
 11
22.6357
 21
137.935
 31
0.0
  0
LINE
  8
0
 62
     1
 10
22.6357
 20
137.935
 30
0.0
 11
22.338
 21
138.394
 31
0.0
  0
LINE
  8
0
 62
     1
 10
22.338
 20
138.394
 30
0.0
 11
21.9122
 21
138.738
 31
0.0
  0
LINE
  8
0
 62
     1
 10
21.9122
 20
138.738
 30
0.0
 11
21.682
 21
138.826
 31
0.0
  0
LINE
  8
0
 62
     1
 10
21.682
 20
138.826
 30
0.0
 11
21.4009
 21
138.934
 31
0.0
  0
LINE
  8
0
 62
     1
 10
21.4009
 20
138.934
 30
0.0
 11
20.8539
 21
138.963
 31
0.0
  0
LINE
  8
0
 62
     1
 10
20.8539
 20
138.963
 30
0.0
 11
20.344
 21
138.826
 31
0.0
  0
LINE
  8
0
 62
     1
 10
20.344
 20
138.826
 30
0.0
 11
20.3247
 21
138.821
 31
0.0
  0
LINE
  8
0
 62
     1
 10
145.074
 20
135.686
 30
0.0
 11
145.603
 21
135.544
 31
0.0
  0
LINE
  8
0
 62
     1
 10
145.603
 20
135.544
 30
0.0
 11
146.151
 21
135.573
 31
0.0
  0
LINE
  8
0
 62
     1
 10
146.151
 20
135.573
 30
0.0
 11
146.297
 21
135.629
 31
0.0
  0
LINE
  8
0
 62
     1
 10
146.297
 20
135.629
 30
0.0
 11
146.662
 21
135.77
 31
0.0
  0
LINE
  8
0
 62
     1
 10
146.662
 20
135.77
 30
0.0
 11
147.088
 21
136.114
 31
0.0
  0
LINE
  8
0
 62
     1
 10
147.088
 20
136.114
 30
0.0
 11
147.387
 21
136.573
 31
0.0
  0
LINE
  8
0
 62
     1
 10
147.387
 20
136.573
 30
0.0
 11
147.528
 21
137.104
 31
0.0
  0
LINE
  8
0
 62
     1
 10
147.528
 20
137.104
 30
0.0
 11
147.5
 21
137.651
 31
0.0
  0
LINE
  8
0
 62
     1
 10
147.5
 20
137.651
 30
0.0
 11
147.303
 21
138.162
 31
0.0
  0
LINE
  8
0
 62
     1
 10
147.303
 20
138.162
 30
0.0
 11
146.958
 21
138.588
 31
0.0
  0
LINE
  8
0
 62
     1
 10
146.958
 20
138.588
 30
0.0
 11
146.592
 21
138.826
 31
0.0
  0
LINE
  8
0
 62
     1
 10
146.592
 20
138.826
 30
0.0
 11
146.499
 21
138.887
 31
0.0
  0
LINE
  8
0
 62
     1
 10
146.499
 20
138.887
 30
0.0
 11
145.969
 21
139.029
 31
0.0
  0
LINE
  8
0
 62
     1
 10
145.969
 20
139.029
 30
0.0
 11
145.422
 21
139
 31
0.0
  0
LINE
  8
0
 62
     1
 10
145.422
 20
139
 30
0.0
 11
144.97
 21
138.826
 31
0.0
  0
LINE
  8
0
 62
     1
 10
144.97
 20
138.826
 30
0.0
 11
144.911
 21
138.801
 31
0.0
  0
LINE
  8
0
 62
     1
 10
144.911
 20
138.801
 30
0.0
 11
144.485
 21
138.458
 31
0.0
  0
LINE
  8
0
 62
     1
 10
144.485
 20
138.458
 30
0.0
 11
144.186
 21
137.998
 31
0.0
  0
LINE
  8
0
 62
     1
 10
144.186
 20
137.998
 30
0.0
 11
144.044
 21
137.469
 31
0.0
  0
LINE
  8
0
 62
     1
 10
144.044
 20
137.469
 30
0.0
 11
144.073
 21
136.92
 31
0.0
  0
LINE
  8
0
 62
     1
 10
144.073
 20
136.92
 30
0.0
 11
144.27
 21
136.411
 31
0.0
  0
LINE
  8
0
 62
     1
 10
144.27
 20
136.411
 30
0.0
 11
144.614
 21
135.985
 31
0.0
  0
LINE
  8
0
 62
     1
 10
144.614
 20
135.985
 30
0.0
 11
145.074
 21
135.686
 31
0.0
  0
LINE
  8
0
 62
     1
 10
56.4515
 20
126.373
 30
0.0
 11
56.3534
 21
125.754
 31
0.0
  0
LINE
  8
0
 62
     1
 10
56.3534
 20
125.754
 30
0.0
 11
56.4515
 21
125.137
 31
0.0
  0
LINE
  8
0
 62
     1
 10
56.4515
 20
125.137
 30
0.0
 11
56.7351
 21
124.579
 31
0.0
  0
LINE
  8
0
 62
     1
 10
56.7351
 20
124.579
 30
0.0
 11
57.1775
 21
124.137
 31
0.0
  0
LINE
  8
0
 62
     1
 10
57.1775
 20
124.137
 30
0.0
 11
57.7356
 21
123.853
 31
0.0
  0
LINE
  8
0
 62
     1
 10
57.7356
 20
123.853
 30
0.0
 11
58.3544
 21
123.755
 31
0.0
  0
LINE
  8
0
 62
     1
 10
58.3544
 20
123.755
 30
0.0
 11
58.9717
 21
123.853
 31
0.0
  0
LINE
  8
0
 62
     1
 10
58.9717
 20
123.853
 30
0.0
 11
59.5284
 21
124.137
 31
0.0
  0
LINE
  8
0
 62
     1
 10
59.5284
 20
124.137
 30
0.0
 11
59.9722
 21
124.579
 31
0.0
  0
LINE
  8
0
 62
     1
 10
59.9722
 20
124.579
 30
0.0
 11
60.2562
 21
125.137
 31
0.0
  0
LINE
  8
0
 62
     1
 10
60.2562
 20
125.137
 30
0.0
 11
60.2795
 21
125.287
 31
0.0
  0
LINE
  8
0
 62
     1
 10
60.2795
 20
125.287
 30
0.0
 11
60.3539
 21
125.754
 31
0.0
  0
LINE
  8
0
 62
     1
 10
60.3539
 20
125.754
 30
0.0
 11
60.2795
 21
126.22
 31
0.0
  0
LINE
  8
0
 62
     1
 10
60.2795
 20
126.22
 30
0.0
 11
60.2562
 21
126.373
 31
0.0
  0
LINE
  8
0
 62
     1
 10
60.2562
 20
126.373
 30
0.0
 11
60.1719
 21
126.538
 31
0.0
  0
LINE
  8
0
 62
     1
 10
60.1719
 20
126.538
 30
0.0
 11
59.9722
 21
126.931
 31
0.0
  0
LINE
  8
0
 62
     1
 10
59.9722
 20
126.931
 30
0.0
 11
59.5284
 21
127.374
 31
0.0
  0
LINE
  8
0
 62
     1
 10
59.5284
 20
127.374
 30
0.0
 11
58.9717
 21
127.657
 31
0.0
  0
LINE
  8
0
 62
     1
 10
58.9717
 20
127.657
 30
0.0
 11
58.3544
 21
127.754
 31
0.0
  0
LINE
  8
0
 62
     1
 10
58.3544
 20
127.754
 30
0.0
 11
57.7356
 21
127.657
 31
0.0
  0
LINE
  8
0
 62
     1
 10
57.7356
 20
127.657
 30
0.0
 11
57.1775
 21
127.374
 31
0.0
  0
LINE
  8
0
 62
     1
 10
57.1775
 20
127.374
 30
0.0
 11
56.7351
 21
126.931
 31
0.0
  0
LINE
  8
0
 62
     1
 10
56.7351
 20
126.931
 30
0.0
 11
56.5355
 21
126.538
 31
0.0
  0
LINE
  8
0
 62
     1
 10
56.5355
 20
126.538
 30
0.0
 11
56.4515
 21
126.373
 31
0.0
  0
LINE
  8
0
 62
     1
 10
56.3548
 20
50.763
 30
0.0
 11
56.3534
 21
50.7503
 31
0.0
  0
LINE
  8
0
 62
     1
 10
56.3534
 20
50.7503
 30
0.0
 11
56.4515
 21
50.1329
 31
0.0
  0
LINE
  8
0
 62
     1
 10
56.4515
 20
50.1329
 30
0.0
 11
56.7351
 21
49.5748
 31
0.0
  0
LINE
  8
0
 62
     1
 10
56.7351
 20
49.5748
 30
0.0
 11
57.1775
 21
49.1314
 31
0.0
  0
LINE
  8
0
 62
     1
 10
57.1775
 20
49.1314
 30
0.0
 11
57.7356
 21
48.8474
 31
0.0
  0
LINE
  8
0
 62
     1
 10
57.7356
 20
48.8474
 30
0.0
 11
58.3544
 21
48.7497
 31
0.0
  0
LINE
  8
0
 62
     1
 10
58.3544
 20
48.7497
 30
0.0
 11
58.9717
 21
48.8474
 31
0.0
  0
LINE
  8
0
 62
     1
 10
58.9717
 20
48.8474
 30
0.0
 11
59.5284
 21
49.1314
 31
0.0
  0
LINE
  8
0
 62
     1
 10
59.5284
 20
49.1314
 30
0.0
 11
59.9722
 21
49.5748
 31
0.0
  0
LINE
  8
0
 62
     1
 10
59.9722
 20
49.5748
 30
0.0
 11
60.2562
 21
50.1329
 31
0.0
  0
LINE
  8
0
 62
     1
 10
60.2562
 20
50.1329
 30
0.0
 11
60.3539
 21
50.7503
 31
0.0
  0
LINE
  8
0
 62
     1
 10
60.3539
 20
50.7503
 30
0.0
 11
60.3525
 21
50.763
 31
0.0
  0
LINE
  8
0
 62
     1
 10
60.3525
 20
50.763
 30
0.0
 11
60.2562
 21
51.3676
 31
0.0
  0
LINE
  8
0
 62
     1
 10
60.2562
 20
51.3676
 30
0.0
 11
59.9722
 21
51.9257
 31
0.0
  0
LINE
  8
0
 62
     1
 10
59.9722
 20
51.9257
 30
0.0
 11
59.5284
 21
52.3681
 31
0.0
  0
LINE
  8
0
 62
     1
 10
59.5284
 20
52.3681
 30
0.0
 11
58.9717
 21
52.6507
 31
0.0
  0
LINE
  8
0
 62
     1
 10
58.9717
 20
52.6507
 30
0.0
 11
58.3544
 21
52.7498
 31
0.0
  0
LINE
  8
0
 62
     1
 10
58.3544
 20
52.7498
 30
0.0
 11
57.7356
 21
52.6507
 31
0.0
  0
LINE
  8
0
 62
     1
 10
57.7356
 20
52.6507
 30
0.0
 11
57.1775
 21
52.3681
 31
0.0
  0
LINE
  8
0
 62
     1
 10
57.1775
 20
52.3681
 30
0.0
 11
56.7351
 21
51.9257
 31
0.0
  0
LINE
  8
0
 62
     1
 10
56.7351
 20
51.9257
 30
0.0
 11
56.4515
 21
51.3676
 31
0.0
  0
LINE
  8
0
 62
     1
 10
56.4515
 20
51.3676
 30
0.0
 11
56.3548
 21
50.763
 31
0.0
  0
LINE
  8
0
 62
     1
 10
38.8828
 20
113.375
 30
0.0
 11
38.9227
 21
114.157
 31
0.0
  0
LINE
  8
0
 62
     1
 10
38.9227
 20
114.157
 30
0.0
 11
38.898
 21
114.25
 31
0.0
  0
LINE
  8
0
 62
     1
 10
38.898
 20
114.25
 30
0.0
 11
38.7216
 21
114.912
 31
0.0
  0
LINE
  8
0
 62
     1
 10
38.7216
 20
114.912
 30
0.0
 11
38.2944
 21
115.569
 31
0.0
  0
LINE
  8
0
 62
     1
 10
38.2944
 20
115.569
 30
0.0
 11
37.6865
 21
116.061
 31
0.0
  0
LINE
  8
0
 62
     1
 10
37.6865
 20
116.061
 30
0.0
 11
36.9549
 21
116.342
 31
0.0
  0
LINE
  8
0
 62
     1
 10
36.9549
 20
116.342
 30
0.0
 11
36.1735
 21
116.384
 31
0.0
  0
LINE
  8
0
 62
     1
 10
36.1735
 20
116.384
 30
0.0
 11
35.4182
 21
116.18
 31
0.0
  0
LINE
  8
0
 62
     1
 10
35.4182
 20
116.18
 30
0.0
 11
34.761
 21
115.754
 31
0.0
  0
LINE
  8
0
 62
     1
 10
34.761
 20
115.754
 30
0.0
 11
34.2677
 21
115.146
 31
0.0
  0
LINE
  8
0
 62
     1
 10
34.2677
 20
115.146
 30
0.0
 11
33.988
 21
114.416
 31
0.0
  0
LINE
  8
0
 62
     1
 10
33.988
 20
114.416
 30
0.0
 11
33.9797
 21
114.25
 31
0.0
  0
LINE
  8
0
 62
     1
 10
33.9797
 20
114.25
 30
0.0
 11
33.9466
 21
113.633
 31
0.0
  0
LINE
  8
0
 62
     1
 10
33.9466
 20
113.633
 30
0.0
 11
34.1505
 21
112.878
 31
0.0
  0
LINE
  8
0
 62
     1
 10
34.1505
 20
112.878
 30
0.0
 11
34.5764
 21
112.222
 31
0.0
  0
LINE
  8
0
 62
     1
 10
34.5764
 20
112.222
 30
0.0
 11
35.1841
 21
111.729
 31
0.0
  0
LINE
  8
0
 62
     1
 10
35.1841
 20
111.729
 30
0.0
 11
35.9145
 21
111.447
 31
0.0
  0
LINE
  8
0
 62
     1
 10
35.9145
 20
111.447
 30
0.0
 11
36.697
 21
111.408
 31
0.0
  0
LINE
  8
0
 62
     1
 10
36.697
 20
111.408
 30
0.0
 11
37.4537
 21
111.609
 31
0.0
  0
LINE
  8
0
 62
     1
 10
37.4537
 20
111.609
 30
0.0
 11
38.1095
 21
112.034
 31
0.0
  0
LINE
  8
0
 62
     1
 10
38.1095
 20
112.034
 30
0.0
 11
38.6016
 21
112.645
 31
0.0
  0
LINE
  8
0
 62
     1
 10
38.6016
 20
112.645
 30
0.0
 11
38.8828
 21
113.375
 31
0.0
  0
LINE
  8
0
 62
     1
 10
6.82128
 20
115.93
 30
0.0
 11
6.79235
 21
115.384
 31
0.0
  0
LINE
  8
0
 62
     1
 10
6.79235
 20
115.384
 30
0.0
 11
6.93431
 21
114.855
 31
0.0
  0
LINE
  8
0
 62
     1
 10
6.93431
 20
114.855
 30
0.0
 11
7.03213
 21
114.705
 31
0.0
  0
LINE
  8
0
 62
     1
 10
7.03213
 20
114.705
 30
0.0
 11
7.23194
 21
114.396
 31
0.0
  0
LINE
  8
0
 62
     1
 10
7.23194
 20
114.396
 30
0.0
 11
7.41246
 21
114.25
 31
0.0
  0
LINE
  8
0
 62
     1
 10
7.41246
 20
114.25
 30
0.0
 11
7.65775
 21
114.052
 31
0.0
  0
LINE
  8
0
 62
     1
 10
7.65775
 20
114.052
 30
0.0
 11
8.16903
 21
113.855
 31
0.0
  0
LINE
  8
0
 62
     1
 10
8.16903
 20
113.855
 30
0.0
 11
8.71608
 21
113.827
 31
0.0
  0
LINE
  8
0
 62
     1
 10
8.71608
 20
113.827
 30
0.0
 11
9.24525
 21
113.968
 31
0.0
  0
LINE
  8
0
 62
     1
 10
9.24525
 20
113.968
 30
0.0
 11
9.67934
 21
114.25
 31
0.0
  0
LINE
  8
0
 62
     1
 10
9.67934
 20
114.25
 30
0.0
 11
9.70552
 21
114.267
 31
0.0
  0
LINE
  8
0
 62
     1
 10
9.70552
 20
114.267
 30
0.0
 11
10.0487
 21
114.693
 31
0.0
  0
LINE
  8
0
 62
     1
 10
10.0487
 20
114.693
 30
0.0
 11
10.2457
 21
115.204
 31
0.0
  0
LINE
  8
0
 62
     1
 10
10.2457
 20
115.204
 30
0.0
 11
10.2747
 21
115.751
 31
0.0
  0
LINE
  8
0
 62
     1
 10
10.2747
 20
115.751
 30
0.0
 11
10.1327
 21
116.279
 31
0.0
  0
LINE
  8
0
 62
     1
 10
10.1327
 20
116.279
 30
0.0
 11
9.83368
 21
116.738
 31
0.0
  0
LINE
  8
0
 62
     1
 10
9.83368
 20
116.738
 30
0.0
 11
9.40925
 21
117.084
 31
0.0
  0
LINE
  8
0
 62
     1
 10
9.40925
 20
117.084
 30
0.0
 11
8.89663
 21
117.279
 31
0.0
  0
LINE
  8
0
 62
     1
 10
8.89663
 20
117.279
 30
0.0
 11
8.34954
 21
117.308
 31
0.0
  0
LINE
  8
0
 62
     1
 10
8.34954
 20
117.308
 30
0.0
 11
7.82175
 21
117.165
 31
0.0
  0
LINE
  8
0
 62
     1
 10
7.82175
 20
117.165
 30
0.0
 11
7.36148
 21
116.869
 31
0.0
  0
LINE
  8
0
 62
     1
 10
7.36148
 20
116.869
 30
0.0
 11
7.03213
 21
116.459
 31
0.0
  0
LINE
  8
0
 62
     1
 10
7.03213
 20
116.459
 30
0.0
 11
7.01696
 21
116.443
 31
0.0
  0
LINE
  8
0
 62
     1
 10
7.01696
 20
116.443
 30
0.0
 11
6.82128
 21
115.93
 31
0.0
  0
LINE
  8
0
 62
     1
 10
106.456
 20
126.373
 30
0.0
 11
106.54
 21
126.538
 31
0.0
  0
LINE
  8
0
 62
     1
 10
106.54
 20
126.538
 30
0.0
 11
106.74
 21
126.931
 31
0.0
  0
LINE
  8
0
 62
     1
 10
106.74
 20
126.931
 30
0.0
 11
107.182
 21
127.374
 31
0.0
  0
LINE
  8
0
 62
     1
 10
107.182
 20
127.374
 30
0.0
 11
107.74
 21
127.657
 31
0.0
  0
LINE
  8
0
 62
     1
 10
107.74
 20
127.657
 30
0.0
 11
108.358
 21
127.754
 31
0.0
  0
LINE
  8
0
 62
     1
 10
108.358
 20
127.754
 30
0.0
 11
108.977
 21
127.657
 31
0.0
  0
LINE
  8
0
 62
     1
 10
108.977
 20
127.657
 30
0.0
 11
109.535
 21
127.374
 31
0.0
  0
LINE
  8
0
 62
     1
 10
109.535
 20
127.374
 30
0.0
 11
109.976
 21
126.931
 31
0.0
  0
LINE
  8
0
 62
     1
 10
109.976
 20
126.931
 30
0.0
 11
110.177
 21
126.538
 31
0.0
  0
LINE
  8
0
 62
     1
 10
110.177
 20
126.538
 30
0.0
 11
110.261
 21
126.373
 31
0.0
  0
LINE
  8
0
 62
     1
 10
110.261
 20
126.373
 30
0.0
 11
110.357
 21
125.754
 31
0.0
  0
LINE
  8
0
 62
     1
 10
110.357
 20
125.754
 30
0.0
 11
110.261
 21
125.137
 31
0.0
  0
LINE
  8
0
 62
     1
 10
110.261
 20
125.137
 30
0.0
 11
109.976
 21
124.579
 31
0.0
  0
LINE
  8
0
 62
     1
 10
109.976
 20
124.579
 30
0.0
 11
109.535
 21
124.137
 31
0.0
  0
LINE
  8
0
 62
     1
 10
109.535
 20
124.137
 30
0.0
 11
108.977
 21
123.853
 31
0.0
  0
LINE
  8
0
 62
     1
 10
108.977
 20
123.853
 30
0.0
 11
108.358
 21
123.755
 31
0.0
  0
LINE
  8
0
 62
     1
 10
108.358
 20
123.755
 30
0.0
 11
107.74
 21
123.853
 31
0.0
  0
LINE
  8
0
 62
     1
 10
107.74
 20
123.853
 30
0.0
 11
107.182
 21
124.137
 31
0.0
  0
LINE
  8
0
 62
     1
 10
107.182
 20
124.137
 30
0.0
 11
106.74
 21
124.579
 31
0.0
  0
LINE
  8
0
 62
     1
 10
106.74
 20
124.579
 30
0.0
 11
106.456
 21
125.137
 31
0.0
  0
LINE
  8
0
 62
     1
 10
106.456
 20
125.137
 30
0.0
 11
106.358
 21
125.754
 31
0.0
  0
LINE
  8
0
 62
     1
 10
106.358
 20
125.754
 30
0.0
 11
106.456
 21
126.373
 31
0.0
  0
LINE
  8
0
 62
     1
 10
106.36
 20
50.763
 30
0.0
 11
106.456
 21
51.3676
 31
0.0
  0
LINE
  8
0
 62
     1
 10
106.456
 20
51.3676
 30
0.0
 11
106.74
 21
51.9257
 31
0.0
  0
LINE
  8
0
 62
     1
 10
106.74
 20
51.9257
 30
0.0
 11
107.182
 21
52.3681
 31
0.0
  0
LINE
  8
0
 62
     1
 10
107.182
 20
52.3681
 30
0.0
 11
107.74
 21
52.6507
 31
0.0
  0
LINE
  8
0
 62
     1
 10
107.74
 20
52.6507
 30
0.0
 11
108.358
 21
52.7498
 31
0.0
  0
LINE
  8
0
 62
     1
 10
108.358
 20
52.7498
 30
0.0
 11
108.977
 21
52.6507
 31
0.0
  0
LINE
  8
0
 62
     1
 10
108.977
 20
52.6507
 30
0.0
 11
109.535
 21
52.3681
 31
0.0
  0
LINE
  8
0
 62
     1
 10
109.535
 20
52.3681
 30
0.0
 11
109.976
 21
51.9257
 31
0.0
  0
LINE
  8
0
 62
     1
 10
109.976
 20
51.9257
 30
0.0
 11
110.261
 21
51.3676
 31
0.0
  0
LINE
  8
0
 62
     1
 10
110.261
 20
51.3676
 30
0.0
 11
110.356
 21
50.763
 31
0.0
  0
LINE
  8
0
 62
     1
 10
110.356
 20
50.763
 30
0.0
 11
110.357
 21
50.7503
 31
0.0
  0
LINE
  8
0
 62
     1
 10
110.357
 20
50.7503
 30
0.0
 11
110.261
 21
50.1329
 31
0.0
  0
LINE
  8
0
 62
     1
 10
110.261
 20
50.1329
 30
0.0
 11
109.976
 21
49.5748
 31
0.0
  0
LINE
  8
0
 62
     1
 10
109.976
 20
49.5748
 30
0.0
 11
109.535
 21
49.1314
 31
0.0
  0
LINE
  8
0
 62
     1
 10
109.535
 20
49.1314
 30
0.0
 11
108.977
 21
48.8474
 31
0.0
  0
LINE
  8
0
 62
     1
 10
108.977
 20
48.8474
 30
0.0
 11
108.358
 21
48.7497
 31
0.0
  0
LINE
  8
0
 62
     1
 10
108.358
 20
48.7497
 30
0.0
 11
107.74
 21
48.8474
 31
0.0
  0
LINE
  8
0
 62
     1
 10
107.74
 20
48.8474
 30
0.0
 11
107.182
 21
49.1314
 31
0.0
  0
LINE
  8
0
 62
     1
 10
107.182
 20
49.1314
 30
0.0
 11
106.74
 21
49.5748
 31
0.0
  0
LINE
  8
0
 62
     1
 10
106.74
 20
49.5748
 30
0.0
 11
106.456
 21
50.1329
 31
0.0
  0
LINE
  8
0
 62
     1
 10
106.456
 20
50.1329
 30
0.0
 11
106.358
 21
50.7503
 31
0.0
  0
LINE
  8
0
 62
     1
 10
106.358
 20
50.7503
 30
0.0
 11
106.36
 21
50.763
 31
0.0
  0
LINE
  8
0
 62
     1
 10
157.575
 20
114.034
 30
0.0
 11
157.243
 21
114.25
 31
0.0
  0
LINE
  8
0
 62
     1
 10
157.243
 20
114.25
 30
0.0
 11
157.114
 21
114.333
 31
0.0
  0
LINE
  8
0
 62
     1
 10
157.114
 20
114.333
 30
0.0
 11
156.768
 21
114.759
 31
0.0
  0
LINE
  8
0
 62
     1
 10
156.768
 20
114.759
 30
0.0
 11
156.573
 21
115.272
 31
0.0
  0
LINE
  8
0
 62
     1
 10
156.573
 20
115.272
 30
0.0
 11
156.544
 21
115.819
 31
0.0
  0
LINE
  8
0
 62
     1
 10
156.544
 20
115.819
 30
0.0
 11
156.686
 21
116.348
 31
0.0
  0
LINE
  8
0
 62
     1
 10
156.686
 20
116.348
 30
0.0
 11
156.985
 21
116.808
 31
0.0
  0
LINE
  8
0
 62
     1
 10
156.985
 20
116.808
 30
0.0
 11
157.411
 21
117.153
 31
0.0
  0
LINE
  8
0
 62
     1
 10
157.411
 20
117.153
 30
0.0
 11
157.922
 21
117.35
 31
0.0
  0
LINE
  8
0
 62
     1
 10
157.922
 20
117.35
 30
0.0
 11
158.469
 21
117.379
 31
0.0
  0
LINE
  8
0
 62
     1
 10
158.469
 20
117.379
 30
0.0
 11
158.585
 21
117.348
 31
0.0
  0
LINE
  8
0
 62
     1
 10
158.585
 20
117.348
 30
0.0
 11
158.999
 21
117.237
 31
0.0
  0
LINE
  8
0
 62
     1
 10
158.999
 20
117.237
 30
0.0
 11
159.458
 21
116.938
 31
0.0
  0
LINE
  8
0
 62
     1
 10
159.458
 20
116.938
 30
0.0
 11
159.803
 21
116.512
 31
0.0
  0
LINE
  8
0
 62
     1
 10
159.803
 20
116.512
 30
0.0
 11
160
 21
116
 31
0.0
  0
LINE
  8
0
 62
     1
 10
160
 20
116
 30
0.0
 11
160.027
 21
115.452
 31
0.0
  0
LINE
  8
0
 62
     1
 10
160.027
 20
115.452
 30
0.0
 11
159.887
 21
114.923
 31
0.0
  0
LINE
  8
0
 62
     1
 10
159.887
 20
114.923
 30
0.0
 11
159.588
 21
114.464
 31
0.0
  0
LINE
  8
0
 62
     1
 10
159.588
 20
114.464
 30
0.0
 11
159.325
 21
114.25
 31
0.0
  0
LINE
  8
0
 62
     1
 10
159.325
 20
114.25
 30
0.0
 11
159.162
 21
114.118
 31
0.0
  0
LINE
  8
0
 62
     1
 10
159.162
 20
114.118
 30
0.0
 11
158.649
 21
113.923
 31
0.0
  0
LINE
  8
0
 62
     1
 10
158.649
 20
113.923
 30
0.0
 11
158.104
 21
113.894
 31
0.0
  0
LINE
  8
0
 62
     1
 10
158.104
 20
113.894
 30
0.0
 11
157.575
 21
114.034
 31
0.0
  0
LINE
  8
0
 62
     1
 10
132.708
 20
112.878
 30
0.0
 11
132.282
 21
112.222
 31
0.0
  0
LINE
  8
0
 62
     1
 10
132.282
 20
112.222
 30
0.0
 11
131.673
 21
111.73
 31
0.0
  0
LINE
  8
0
 62
     1
 10
131.673
 20
111.73
 30
0.0
 11
130.943
 21
111.447
 31
0.0
  0
LINE
  8
0
 62
     1
 10
130.943
 20
111.447
 30
0.0
 11
130.161
 21
111.408
 31
0.0
  0
LINE
  8
0
 62
     1
 10
130.161
 20
111.408
 30
0.0
 11
129.405
 21
111.609
 31
0.0
  0
LINE
  8
0
 62
     1
 10
129.405
 20
111.609
 30
0.0
 11
128.749
 21
112.034
 31
0.0
  0
LINE
  8
0
 62
     1
 10
128.749
 20
112.034
 30
0.0
 11
128.256
 21
112.645
 31
0.0
  0
LINE
  8
0
 62
     1
 10
128.256
 20
112.645
 30
0.0
 11
127.976
 21
113.375
 31
0.0
  0
LINE
  8
0
 62
     1
 10
127.976
 20
113.375
 30
0.0
 11
127.934
 21
114.158
 31
0.0
  0
LINE
  8
0
 62
     1
 10
127.934
 20
114.158
 30
0.0
 11
127.959
 21
114.25
 31
0.0
  0
LINE
  8
0
 62
     1
 10
127.959
 20
114.25
 30
0.0
 11
128.137
 21
114.913
 31
0.0
  0
LINE
  8
0
 62
     1
 10
128.137
 20
114.913
 30
0.0
 11
128.563
 21
115.569
 31
0.0
  0
LINE
  8
0
 62
     1
 10
128.563
 20
115.569
 30
0.0
 11
129.17
 21
116.062
 31
0.0
  0
LINE
  8
0
 62
     1
 10
129.17
 20
116.062
 30
0.0
 11
129.902
 21
116.342
 31
0.0
  0
LINE
  8
0
 62
     1
 10
129.902
 20
116.342
 30
0.0
 11
130.683
 21
116.384
 31
0.0
  0
LINE
  8
0
 62
     1
 10
130.683
 20
116.384
 30
0.0
 11
131.44
 21
116.18
 31
0.0
  0
LINE
  8
0
 62
     1
 10
131.44
 20
116.18
 30
0.0
 11
132.096
 21
115.754
 31
0.0
  0
LINE
  8
0
 62
     1
 10
132.096
 20
115.754
 30
0.0
 11
132.589
 21
115.146
 31
0.0
  0
LINE
  8
0
 62
     1
 10
132.589
 20
115.146
 30
0.0
 11
132.869
 21
114.416
 31
0.0
  0
LINE
  8
0
 62
     1
 10
132.869
 20
114.416
 30
0.0
 11
132.877
 21
114.25
 31
0.0
  0
LINE
  8
0
 62
     1
 10
132.877
 20
114.25
 30
0.0
 11
132.91
 21
113.634
 31
0.0
  0
LINE
  8
0
 62
     1
 10
132.91
 20
113.634
 30
0.0
 11
132.708
 21
112.878
 31
0.0
  0
LINE
  8
0
 62
     1
 10
69.1776
 20
115.496
 30
0.0
 11
54.4269
 21
115.496
 31
0.0
  0
LINE
  8
0
 62
     1
 10
54.4269
 20
115.496
 30
0.0
 11
54.4269
 21
58.4962
 31
0.0
  0
LINE
  8
0
 62
     1
 10
54.4269
 20
58.4962
 30
0.0
 11
73.4289
 21
58.4962
 31
0.0
  0
LINE
  8
0
 62
     1
 10
73.4289
 20
58.4962
 30
0.0
 11
73.4289
 21
115.496
 31
0.0
  0
LINE
  8
0
 62
     1
 10
73.4289
 20
115.496
 30
0.0
 11
69.1776
 21
115.496
 31
0.0
  0
LINE
  8
0
 62
     1
 10
45.853
 20
124.004
 30
0.0
 11
45.853
 21
118
 31
0.0
  0
LINE
  8
0
 62
     1
 10
45.853
 20
118
 30
0.0
 11
48.8583
 21
118
 31
0.0
  0
LINE
  8
0
 62
     1
 10
48.8583
 20
118
 30
0.0
 11
48.8583
 21
124.004
 31
0.0
  0
LINE
  8
0
 62
     1
 10
48.8583
 20
124.004
 30
0.0
 11
45.853
 21
124.004
 31
0.0
  0
LINE
  8
0
 62
     1
 10
94.1807
 20
115.496
 30
0.0
 11
93.4297
 21
115.496
 31
0.0
  0
LINE
  8
0
 62
     1
 10
93.4297
 20
115.496
 30
0.0
 11
93.4297
 21
58.4962
 31
0.0
  0
LINE
  8
0
 62
     1
 10
93.4297
 20
58.4962
 30
0.0
 11
112.431
 21
58.4962
 31
0.0
  0
LINE
  8
0
 62
     1
 10
112.431
 20
58.4962
 30
0.0
 11
112.431
 21
115.496
 31
0.0
  0
LINE
  8
0
 62
     1
 10
112.431
 20
115.496
 30
0.0
 11
94.1807
 21
115.496
 31
0.0
  0
LINE
  8
0
 62
     1
 10
110.357
 20
122.006
 30
0.0
 11
110.357
 21
127.754
 31
0.0
  0
LINE
  8
0
 62
     1
 10
110.357
 20
127.754
 30
0.0
 11
106.358
 21
127.754
 31
0.0
  0
LINE
  8
0
 62
     1
 10
106.358
 20
127.754
 30
0.0
 11
106.358
 21
123.755
 31
0.0
  0
LINE
  8
0
 62
     1
 10
110.357
 20
50.7503
 30
0.0
 11
110.357
 21
52.7498
 31
0.0
  0
LINE
  8
0
 62
     1
 10
110.357
 20
52.7498
 30
0.0
 11
106.358
 21
52.7498
 31
0.0
  0
LINE
  8
0
 62
     1
 10
106.358
 20
52.7498
 30
0.0
 11
106.358
 21
48.7497
 31
0.0
  0
LINE
  8
0
 62
     1
 10
106.358
 20
48.7497
 30
0.0
 11
110.357
 21
48.7497
 31
0.0
  0
LINE
  8
0
 62
     1
 10
110.357
 20
48.7497
 30
0.0
 11
110.357
 21
49.065
 31
0.0
  0
LINE
  8
0
 62
     1
 10
158.575
 20
113.894
 30
0.0
 11
160.027
 21
113.894
 31
0.0
  0
LINE
  8
0
 62
     1
 10
160.027
 20
113.894
 30
0.0
 11
160.027
 21
117.379
 31
0.0
  0
LINE
  8
0
 62
     1
 10
160.027
 20
117.379
 30
0.0
 11
156.544
 21
117.379
 31
0.0
  0
LINE
  8
0
 62
     1
 10
156.544
 20
117.379
 30
0.0
 11
156.544
 21
113.894
 31
0.0
  0
LINE
  8
0
 62
     1
 10
156.544
 20
113.894
 30
0.0
 11
158.104
 21
113.894
 31
0.0
  0
LINE
  8
0
 62
     1
 10
132.91
 20
114.25
 30
0.0
 11
132.91
 21
116.384
 31
0.0
  0
LINE
  8
0
 62
     1
 10
132.91
 20
116.384
 30
0.0
 11
127.934
 21
116.384
 31
0.0
  0
LINE
  8
0
 62
     1
 10
127.934
 20
116.384
 30
0.0
 11
127.934
 21
111.408
 31
0.0
  0
LINE
  8
0
 62
     1
 10
127.934
 20
111.408
 30
0.0
 11
132.91
 21
111.408
 31
0.0
  0
LINE
  8
0
 62
     1
 10
132.91
 20
111.408
 30
0.0
 11
132.91
 21
114.25
 31
0.0
  0
ENDSEC
  0
EOF
